<svg width="84" height="18" viewBox="0 0 84 18" fill="none" xmlns="http://www.w3.org/2000/svg">
<path d="M11.0735 0.0143934H4.06905C1.0401 0.203702 1.22941 2.85403 2.36526 3.61126C1.22941 4.55781 0.535278 6.32469 0.282867 7.20813C-0.285061 10.2371 0.156662 11.2467 0.282868 12.5088C1.0401 15.6892 3.1225 17.0522 5.77283 17.8094L6.53006 17.9987H8.42315L9.3697 17.8094C13.1559 16.8629 14.4179 14.0232 14.6703 12.5088C14.8597 11.3729 15.2383 9.19585 14.6703 7.20813C14.3999 6.26159 14.481 5.50435 12.7773 3.61126C14.2917 1.52886 12.2093 -0.174915 11.0735 0.0143934Z" fill="white"/>
<path d="M10.3162 1.52881H8.99107C9.559 2.09673 9.36969 2.73545 8.99107 2.96015H10.3162C10.6191 2.96015 11.6414 2.85397 11.6414 2.28604C11.6414 1.61708 10.5055 1.52881 10.3162 1.52881Z" fill="#E5E2E1"/>
<path d="M12.9666 7.20815C12.4392 4.74714 10.1269 4.36852 8.99107 4.55783C11.4521 9.10124 10.1269 14.4019 9.18038 16.1057C11.755 15.197 12.8043 13.266 12.9666 12.5088C13.4209 10.3885 13.1559 8.0916 12.9666 7.20815Z" fill="#E6E2E1"/>
<path d="M26.8157 2.672C28.1519 2.672 29.2287 2.78446 30.046 3.00938C30.8633 3.22359 31.4601 3.5449 31.8363 3.97332C32.2125 4.39103 32.4006 4.91049 32.4006 5.5317C32.4006 6.0351 32.2903 6.46352 32.0698 6.81696C31.8492 7.1597 31.5703 7.43282 31.233 7.63632C30.9087 7.83982 30.5714 7.97905 30.2211 8.05403V8.13435C30.5974 8.20933 30.9736 8.33785 31.3498 8.51993C31.726 8.70201 32.0374 8.97513 32.2838 9.33929C32.5433 9.69273 32.673 10.1747 32.673 10.7852C32.673 11.4814 32.459 12.0812 32.0309 12.5846C31.6028 13.088 30.993 13.4735 30.2017 13.7413C29.4103 14.0091 28.4698 14.1429 27.38 14.1429H21.9703V2.672H26.8157ZM26.8546 7.07401C27.4773 7.07401 27.9119 6.96691 28.1584 6.7527C28.4179 6.53849 28.5476 6.28144 28.5476 5.98154C28.5476 5.67094 28.4049 5.43531 28.1195 5.27465C27.8341 5.10328 27.3865 5.0176 26.7768 5.0176H25.726V7.07401H26.8546ZM25.726 9.33929V11.7491H27.0492C27.6979 11.7491 28.1519 11.6367 28.4114 11.4118C28.6709 11.1761 28.8006 10.8816 28.8006 10.5282C28.8006 10.3247 28.7422 10.1319 28.6255 9.94979C28.5217 9.76771 28.3336 9.62311 28.0611 9.51601C27.8017 9.39819 27.4384 9.33929 26.9714 9.33929H25.726Z" fill="white"/>
<path d="M45.3378 5.25858V14.1429H42.5357L42.0686 13.0344H41.8546C41.634 13.3343 41.3486 13.5806 40.9984 13.7734C40.6611 13.9555 40.2848 14.0894 39.8697 14.1751C39.4675 14.2608 39.0459 14.3036 38.6048 14.3036C37.9043 14.3036 37.2686 14.1911 36.6978 13.9662C36.127 13.7413 35.6729 13.3879 35.3356 12.9059C35.0113 12.4239 34.8492 11.8027 34.8492 11.0423V5.25858H38.5659V10.1104C38.5659 10.6888 38.6632 11.1279 38.8578 11.4278C39.0654 11.7277 39.3962 11.8777 39.8503 11.8777C40.3173 11.8777 40.6805 11.7759 40.94 11.5724C41.1994 11.3582 41.3746 11.0476 41.4654 10.6406C41.5692 10.2336 41.6211 9.73558 41.6211 9.1465V5.25858H45.3378Z" fill="white"/>
<path d="M51.3493 5.09793C52.1017 5.09793 52.705 5.2211 53.159 5.46744C53.6261 5.70307 54.0023 5.99761 54.2877 6.35106H54.3655L54.638 5.25858H57.8488V14.159C57.8488 14.9944 57.6412 15.696 57.2261 16.2636C56.8109 16.8313 56.1753 17.2597 55.319 17.5489C54.4758 17.8488 53.4055 17.9987 52.1082 17.9987C51.239 17.9987 50.4736 17.9612 49.812 17.8863C49.1504 17.8113 48.5147 17.6774 47.905 17.4846V14.9302C48.3461 15.0801 48.7612 15.2033 49.1504 15.2997C49.5396 15.4068 49.9547 15.4818 50.3958 15.5246C50.8369 15.5782 51.3363 15.6049 51.8942 15.6049C52.6466 15.6049 53.2044 15.4925 53.5677 15.2676C53.9439 15.0426 54.132 14.716 54.132 14.2875V14.1269C54.132 13.9876 54.1385 13.8216 54.1515 13.6288C54.1774 13.4361 54.2099 13.2326 54.2488 13.0183H54.132C53.8855 13.3718 53.5353 13.677 53.0812 13.9341C52.6271 14.1804 52.0304 14.3036 51.2909 14.3036C50.1493 14.3036 49.2217 13.9127 48.5082 13.1308C47.7947 12.3489 47.4379 11.2083 47.4379 9.7088C47.4379 8.70201 47.6001 7.86124 47.9244 7.18647C48.2617 6.501 48.7223 5.98154 49.3061 5.6281C49.9028 5.27465 50.5839 5.09793 51.3493 5.09793ZM52.7504 7.47566C52.4131 7.47566 52.1277 7.56134 51.8942 7.73271C51.6607 7.90408 51.4855 8.16113 51.3688 8.50387C51.265 8.83589 51.2131 9.2536 51.2131 9.757C51.2131 10.5282 51.3428 11.0851 51.6023 11.4278C51.8617 11.7599 52.2639 11.9259 52.8088 11.9259C53.1072 11.9259 53.3601 11.8884 53.5677 11.8134C53.7753 11.7277 53.9374 11.6099 54.0542 11.46C54.1839 11.2993 54.2747 11.1012 54.3266 10.8655C54.3915 10.6299 54.4239 10.3514 54.4239 10.0301V9.6606C54.4239 9.20005 54.372 8.80912 54.2682 8.4878C54.1774 8.15578 54.0088 7.90408 53.7623 7.73271C53.5288 7.56134 53.1915 7.47566 52.7504 7.47566Z" fill="white"/>
<path d="M63.8536 5.09793C64.606 5.09793 65.2092 5.2211 65.6633 5.46744C66.1303 5.70307 66.5065 5.99761 66.792 6.35106H66.8698L67.1422 5.25858H70.353V14.159C70.353 14.9944 70.1455 15.696 69.7303 16.2636C69.3152 16.8313 68.6795 17.2597 67.8233 17.5489C66.9801 17.8488 65.9098 17.9987 64.6125 17.9987C63.7433 17.9987 62.9779 17.9612 62.3163 17.8863C61.6546 17.8113 61.019 17.6774 60.4092 17.4846V14.9302C60.8503 15.0801 61.2655 15.2033 61.6546 15.2997C62.0438 15.4068 62.459 15.4818 62.9 15.5246C63.3411 15.5782 63.8406 15.6049 64.3984 15.6049C65.1509 15.6049 65.7087 15.4925 66.0719 15.2676C66.4482 15.0426 66.6363 14.716 66.6363 14.2875V14.1269C66.6363 13.9876 66.6428 13.8216 66.6557 13.6288C66.6817 13.4361 66.7141 13.2326 66.753 13.0183H66.6363C66.3898 13.3718 66.0395 13.677 65.5855 13.9341C65.1314 14.1804 64.5346 14.3036 63.7952 14.3036C62.6536 14.3036 61.726 13.9127 61.0125 13.1308C60.299 12.3489 59.9422 11.2083 59.9422 9.7088C59.9422 8.70201 60.1044 7.86124 60.4287 7.18647C60.766 6.501 61.2265 5.98154 61.8103 5.6281C62.4071 5.27465 63.0882 5.09793 63.8536 5.09793ZM65.2547 7.47566C64.9174 7.47566 64.6319 7.56134 64.3984 7.73271C64.1649 7.90408 63.9898 8.16113 63.873 8.50387C63.7692 8.83589 63.7173 9.2536 63.7173 9.757C63.7173 10.5282 63.8471 11.0851 64.1065 11.4278C64.366 11.7599 64.7682 11.9259 65.313 11.9259C65.6114 11.9259 65.8644 11.8884 66.0719 11.8134C66.2795 11.7277 66.4417 11.6099 66.5584 11.46C66.6882 11.2993 66.779 11.1012 66.8309 10.8655C66.8957 10.6299 66.9282 10.3514 66.9282 10.0301V9.6606C66.9282 9.20005 66.8763 8.80912 66.7725 8.4878C66.6817 8.15578 66.513 7.90408 66.2665 7.73271C66.033 7.56134 65.6957 7.47566 65.2547 7.47566Z" fill="white"/>
<path d="M83.1881 9.67667C83.1881 10.4157 83.0649 11.0744 82.8184 11.6528C82.5719 12.2311 82.2151 12.7185 81.7481 13.1147C81.2811 13.5003 80.7168 13.7949 80.0551 13.9984C79.3935 14.2019 78.6411 14.3036 77.7978 14.3036C77.0195 14.3036 76.2994 14.2019 75.6378 13.9984C74.9892 13.7949 74.4248 13.5003 73.9448 13.1147C73.4778 12.7185 73.1081 12.2311 72.8357 11.6528C72.5762 11.0744 72.4465 10.4157 72.4465 9.67667C72.4465 8.6913 72.6605 7.86124 73.0886 7.18647C73.5297 6.501 74.1524 5.98154 74.9567 5.6281C75.7611 5.27465 76.7276 5.09793 77.8562 5.09793C78.894 5.09793 79.8086 5.27465 80.6 5.6281C81.4043 5.98154 82.0335 6.501 82.4876 7.18647C82.9546 7.86124 83.1881 8.6913 83.1881 9.67667ZM76.2216 9.67667C76.2216 10.1801 76.2735 10.6085 76.3773 10.9619C76.4811 11.3154 76.6497 11.5831 76.8832 11.7652C77.1297 11.9366 77.4476 12.0223 77.8367 12.0223C78.2259 12.0223 78.5308 11.9366 78.7513 11.7652C78.9849 11.5831 79.1535 11.3154 79.2573 10.9619C79.3611 10.6085 79.413 10.1801 79.413 9.67667C79.413 9.17327 79.3611 8.75021 79.2573 8.40747C79.1535 8.06474 78.9849 7.80768 78.7513 7.63632C78.5178 7.46495 78.2065 7.37926 77.8173 7.37926C77.2594 7.37926 76.8508 7.57205 76.5913 7.95763C76.3449 8.34321 76.2216 8.91622 76.2216 9.67667Z" fill="white"/>
</svg>
