<svg width="98" height="18" viewBox="0 0 98 18" fill="none" xmlns="http://www.w3.org/2000/svg">
<path d="M8.478 16.2631C8.046 16.2631 7.566 16.1731 7.038 15.9931C6.522 15.8131 5.988 15.5911 5.436 15.3271C4.884 15.0751 4.338 14.8291 3.798 14.5891C3.498 14.9251 3.186 15.1831 2.862 15.3631C2.538 15.5551 2.184 15.6511 1.8 15.6511C1.416 15.6511 1.092 15.5611 0.828 15.3811C0.552 15.2011 0.348 14.9851 0.216 14.7331C0.072 14.4931 0 14.2771 0 14.0851C0 13.8691 0.102 13.6831 0.306 13.5271C0.498 13.3711 0.834 13.2931 1.314 13.2931C1.626 13.2931 1.968 13.3291 2.34 13.4011C2.724 13.4731 3.12 13.5631 3.528 13.6711C3.816 13.1671 4.08 12.5791 4.32 11.9071C4.572 11.2351 4.818 10.5211 5.058 9.76506C5.298 9.00906 5.538 8.25306 5.778 7.49706C5.226 7.31706 4.788 7.05306 4.464 6.70506C4.152 6.35706 3.996 5.97906 3.996 5.57106C3.996 5.35506 4.038 5.13906 4.122 4.92306C4.218 4.70706 4.35 4.52706 4.518 4.38306C4.686 4.22706 4.884 4.14906 5.112 4.14906C5.028 4.26906 4.968 4.44306 4.932 4.67106C4.896 4.89906 4.878 5.09706 4.878 5.26506C4.878 5.72106 4.974 6.10506 5.166 6.41706C5.358 6.71706 5.604 6.95106 5.904 7.11906C6.144 6.39906 6.39 5.72106 6.642 5.08506C6.906 4.43706 7.194 3.86106 7.506 3.35706C7.818 2.85306 8.16 2.45706 8.532 2.16906C8.904 1.88106 9.318 1.73706 9.774 1.73706C10.014 1.73706 10.266 1.79106 10.53 1.89906C10.806 2.00706 11.04 2.19306 11.232 2.45706C11.424 2.72106 11.52 3.09306 11.52 3.57306C11.52 3.98106 11.436 4.42506 11.268 4.90506C11.1 5.37306 10.842 5.82306 10.494 6.25506C10.146 6.67506 9.702 7.02306 9.162 7.29906C8.622 7.56306 7.986 7.70106 7.254 7.71306C7.242 7.71306 7.212 7.71306 7.164 7.71306C7.128 7.71306 7.044 7.71306 6.912 7.71306C6.672 8.44506 6.414 9.18906 6.138 9.94506C5.874 10.7011 5.592 11.4211 5.292 12.1051C4.992 12.7771 4.668 13.3771 4.32 13.9051C4.872 14.0731 5.43 14.2471 5.994 14.4271C6.558 14.5951 7.104 14.7331 7.632 14.8411C8.16 14.9611 8.646 15.0211 9.09 15.0211C9.342 15.0211 9.57 14.9971 9.774 14.9491C9.978 14.9011 10.176 14.8291 10.368 14.7331C10.176 15.2851 9.918 15.6751 9.594 15.9031C9.282 16.1431 8.91 16.2631 8.478 16.2631ZM1.728 15.1291C1.992 15.1291 2.238 15.0571 2.466 14.9131C2.706 14.7691 2.922 14.5651 3.114 14.3011C2.742 14.1451 2.376 14.0191 2.016 13.9231C1.668 13.8151 1.35 13.7611 1.062 13.7611C0.834 13.7611 0.678 13.7911 0.594 13.8511C0.51 13.9111 0.468 13.9951 0.468 14.1031C0.468 14.3071 0.588 14.5291 0.828 14.7691C1.056 15.0091 1.356 15.1291 1.728 15.1291ZM7.02 7.37106C7.56 7.37106 8.046 7.22106 8.478 6.92106C8.922 6.60906 9.294 6.22506 9.594 5.76906C9.906 5.30106 10.14 4.82706 10.296 4.34706C10.464 3.86706 10.548 3.44706 10.548 3.08706C10.548 2.73906 10.482 2.50506 10.35 2.38506C10.218 2.25306 10.068 2.18706 9.9 2.18706C9.528 2.18706 9.18 2.42706 8.856 2.90706C8.532 3.38706 8.22 4.02306 7.92 4.81506C7.632 5.59506 7.332 6.44706 7.02 7.37106Z" fill="#C0841D"/>
<path d="M12.4616 15.5431C12.0896 15.5431 11.7776 15.4171 11.5256 15.1651C11.2616 14.9251 11.1296 14.5531 11.1296 14.0491C11.1296 13.6171 11.2256 13.1551 11.4176 12.6631C11.6096 12.1591 11.8736 11.6671 12.2096 11.1871C12.5456 10.6951 12.9236 10.2511 13.3436 9.85506C13.7756 9.44706 14.2256 9.12306 14.6936 8.88306C15.1736 8.64306 15.6476 8.52306 16.1156 8.52306C16.5836 8.52306 16.9736 8.64906 17.2856 8.90106C17.5976 9.14106 17.7536 9.46506 17.7536 9.87306C17.7536 10.1731 17.6696 10.3771 17.5016 10.4851C17.3456 10.5931 17.1356 10.6471 16.8716 10.6471C16.8956 10.5511 16.9136 10.4491 16.9256 10.3411C16.9496 10.2211 16.9616 10.1131 16.9616 10.0171C16.9616 9.74106 16.8956 9.50706 16.7636 9.31506C16.6316 9.11106 16.4036 9.00906 16.0796 9.00906C15.7436 9.00906 15.4016 9.12906 15.0536 9.36906C14.7056 9.59706 14.3696 9.90906 14.0456 10.3051C13.7216 10.6891 13.4336 11.1091 13.1816 11.5651C12.9296 12.0211 12.7316 12.4711 12.5876 12.9151C12.4436 13.3591 12.3716 13.7551 12.3716 14.1031C12.3716 14.5711 12.5336 14.8051 12.8576 14.8051C13.1336 14.8051 13.4336 14.6791 13.7576 14.4271C14.0816 14.1631 14.4116 13.8331 14.7476 13.4371C15.0956 13.0291 15.4256 12.6091 15.7376 12.1771C16.0496 11.7451 16.3256 11.3491 16.5656 10.9891C16.6136 10.9171 16.6436 10.8811 16.6556 10.8811C16.7276 10.8931 16.8176 10.9171 16.9256 10.9531C17.0456 10.9891 17.1476 11.0371 17.2316 11.0971C17.3156 11.1571 17.3576 11.2351 17.3576 11.3311C17.3576 11.4391 17.3036 11.5891 17.1956 11.7811C17.0876 11.9611 16.9676 12.1711 16.8356 12.4111C16.7036 12.6511 16.5836 12.8971 16.4756 13.1491C16.3676 13.3891 16.3136 13.6171 16.3136 13.8331C16.3136 14.0131 16.3616 14.1931 16.4576 14.3731C16.5536 14.5411 16.7096 14.6251 16.9256 14.6251C17.2496 14.6251 17.6756 14.3911 18.2036 13.9231C18.7316 13.4431 19.2656 12.7291 19.8056 11.7811L19.9856 11.9611C19.7336 12.6091 19.4096 13.1791 19.0136 13.6711C18.6176 14.1631 18.1916 14.5471 17.7356 14.8231C17.2916 15.0991 16.8536 15.2371 16.4216 15.2371C15.9776 15.2371 15.6476 15.1051 15.4316 14.8411C15.2276 14.5771 15.1256 14.2891 15.1256 13.9771C15.1256 13.9051 15.1316 13.8271 15.1436 13.7431C15.1556 13.6471 15.1676 13.5511 15.1796 13.4551C14.6636 14.1511 14.1896 14.6731 13.7576 15.0211C13.3376 15.3691 12.9056 15.5431 12.4616 15.5431Z" fill="#C0841D"/>
<path d="M20.6075 15.3991C20.2355 15.3991 19.9775 15.2131 19.8335 14.8411C19.6895 14.4811 19.6175 14.0071 19.6175 13.4191C19.6175 13.3951 19.6235 13.2091 19.6355 12.8611C19.6475 12.5011 19.6775 11.9011 19.7255 11.0611C19.7495 10.7371 19.7855 10.5151 19.8335 10.3951C19.8815 10.2751 20.0375 10.2151 20.3015 10.2151C20.5055 10.2151 20.6315 10.2571 20.6795 10.3411C20.7395 10.4131 20.7695 10.5631 20.7695 10.7911C20.7695 11.1871 20.7395 11.6551 20.6795 12.1951C20.6315 12.7231 20.6075 13.2211 20.6075 13.6891C20.6075 14.0371 20.6375 14.2951 20.6975 14.4631C20.7575 14.6191 20.8655 14.6971 21.0215 14.6971C21.2375 14.6971 21.4775 14.5771 21.7415 14.3371C22.0055 14.0851 22.2755 13.7611 22.5515 13.3651C22.8275 12.9571 23.0855 12.5251 23.3255 12.0691C23.5775 11.6131 23.7995 11.1751 23.9915 10.7551C24.0155 9.93906 24.0995 9.39906 24.2435 9.13506C24.3995 8.85906 24.5915 8.72106 24.8195 8.72106C25.0475 8.72106 25.2095 8.80506 25.3055 8.97306C25.4135 9.12906 25.4675 9.27306 25.4675 9.40506C25.4675 9.56106 25.4135 9.72306 25.3055 9.89106C25.2095 10.0591 25.1075 10.2871 24.9995 10.5751C24.8915 10.8631 24.8375 11.2771 24.8375 11.8171C24.8375 12.0091 24.8555 12.2131 24.8915 12.4291C24.9275 12.6451 25.0055 12.8251 25.1255 12.9691C25.2455 13.1131 25.4315 13.1851 25.6835 13.1851C25.9355 13.1851 26.1755 13.0891 26.4035 12.8971C26.6435 12.6931 26.8775 12.3451 27.1055 11.8531L27.3395 12.0331C27.0755 12.6331 26.7815 13.0351 26.4575 13.2391C26.1455 13.4431 25.8455 13.5451 25.5575 13.5451C25.1615 13.5451 24.8315 13.4011 24.5675 13.1131C24.3035 12.8251 24.1295 12.3871 24.0455 11.7991C23.7575 12.3871 23.4155 12.9571 23.0195 13.5091C22.6355 14.0491 22.2335 14.4991 21.8135 14.8591C21.3935 15.2191 20.9915 15.3991 20.6075 15.3991Z" fill="#C0841D"/>
<path d="M28.0635 15.1651C27.5955 15.1651 27.2475 15.0151 27.0195 14.7151C26.7915 14.4271 26.6775 14.0731 26.6775 13.6531C26.6775 13.3771 26.7255 13.0291 26.8215 12.6091C26.9295 12.1891 27.0675 11.7511 27.2355 11.2951C27.4035 10.8271 27.5955 10.3891 27.8115 9.98106C28.0395 9.57306 28.2795 9.24306 28.5315 8.99106C28.7835 8.72706 29.0295 8.59506 29.2695 8.59506C29.3775 8.59506 29.4675 8.63106 29.5395 8.70306C29.6235 8.76306 29.6655 8.85906 29.6655 8.99106C29.6655 9.13506 29.5695 9.36906 29.3775 9.69306C29.1975 10.0171 28.9815 10.3891 28.7295 10.8091C28.4775 11.2291 28.2555 11.6731 28.0635 12.1411C27.8835 12.5971 27.7935 13.0351 27.7935 13.4551C27.7935 13.8871 27.8655 14.1751 28.0095 14.3191C28.1535 14.4631 28.3755 14.5351 28.6755 14.5351C29.0835 14.5351 29.5155 14.3311 29.9715 13.9231C30.4395 13.5151 30.9315 12.8011 31.4475 11.7811L31.6095 11.9611C31.2615 12.9931 30.7575 13.7851 30.0975 14.3371C29.4495 14.8891 28.7715 15.1651 28.0635 15.1651ZM30.2235 6.92106C30.0315 6.92106 29.8575 6.87306 29.7015 6.77706C29.5575 6.68106 29.4855 6.53106 29.4855 6.32706C29.4855 6.07506 29.6295 5.85906 29.9175 5.67906C30.2175 5.48706 30.5115 5.39106 30.7995 5.39106C30.9795 5.39106 31.1235 5.43306 31.2315 5.51706C31.3395 5.60106 31.3935 5.74506 31.3935 5.94906C31.3935 6.17706 31.2675 6.39906 31.0155 6.61506C30.7755 6.81906 30.5115 6.92106 30.2235 6.92106Z" fill="#C0841D"/>
<path d="M32.9993 15.6151C32.4353 15.6151 31.9853 15.4891 31.6493 15.2371C31.3253 14.9971 31.0973 14.6971 30.9653 14.3371C30.8213 13.9771 30.7493 13.6171 30.7493 13.2571C30.7493 12.8971 30.7973 12.6211 30.8933 12.4291C30.9893 12.2371 31.1033 12.0931 31.2353 11.9971C31.3793 11.9011 31.5113 11.8291 31.6313 11.7811C31.7633 11.7331 31.8533 11.6851 31.9013 11.6371C32.2613 11.2411 32.5913 10.8271 32.8913 10.3951C33.1913 9.96306 33.4553 9.50706 33.6833 9.02706V8.81106C33.6833 8.36706 33.7553 8.05506 33.8993 7.87506C34.0553 7.68306 34.2173 7.58706 34.3853 7.58706C34.4813 7.58706 34.5533 7.61106 34.6013 7.65906C34.6493 7.70706 34.6733 7.76106 34.6733 7.82106C34.6733 7.88106 34.6553 7.97706 34.6193 8.10906C34.5833 8.24106 34.5653 8.40906 34.5653 8.61306C34.5653 9.00906 34.6433 9.44106 34.7993 9.90906C34.9553 10.3651 35.1113 10.8511 35.2673 11.3671C35.4233 11.8711 35.5013 12.3991 35.5013 12.9511C35.5013 13.1071 35.4893 13.2631 35.4653 13.4191C35.4533 13.5631 35.4293 13.7011 35.3933 13.8331C35.8133 13.7611 36.2093 13.5751 36.5813 13.2751C36.9533 12.9631 37.3133 12.4711 37.6613 11.7991L37.8233 11.9791C37.5953 12.6391 37.2533 13.1431 36.7973 13.4911C36.3413 13.8271 35.8433 14.0371 35.3033 14.1211C35.1113 14.6371 34.8053 15.0151 34.3853 15.2551C33.9773 15.4951 33.5153 15.6151 32.9993 15.6151ZM33.0353 14.9851C33.1793 14.9851 33.3713 14.9371 33.6113 14.8411C33.8513 14.7451 34.0373 14.4991 34.1693 14.1031C33.6653 14.0071 33.2153 13.8091 32.8193 13.5091C32.4353 13.2091 32.1473 12.9091 31.9553 12.6091C31.6913 12.6211 31.5593 12.8311 31.5593 13.2391C31.5593 13.6711 31.6853 14.0731 31.9373 14.4451C32.2013 14.8051 32.5673 14.9851 33.0353 14.9851ZM34.2593 13.8151C34.2833 13.6951 34.3013 13.5691 34.3133 13.4371C34.3253 13.3051 34.3313 13.1491 34.3313 12.9691C34.3313 12.4051 34.2593 11.8471 34.1153 11.2951C33.9833 10.7311 33.8693 10.2031 33.7733 9.71106C33.4973 10.1671 33.2033 10.6051 32.8913 11.0251C32.5913 11.4331 32.3033 11.7751 32.0273 12.0511C32.2073 12.4351 32.4833 12.7951 32.8553 13.1311C33.2393 13.4671 33.7073 13.6951 34.2593 13.8151Z" fill="#C0841D"/>
<path d="M38.1604 15.3811C37.9324 15.3811 37.7524 15.1891 37.6204 14.8051C37.4884 14.4211 37.4224 13.9891 37.4224 13.5091C37.4224 12.9331 37.5184 12.2491 37.7104 11.4571C37.9024 10.6651 38.1544 9.83106 38.4664 8.95506C38.7784 8.07906 39.1264 7.22106 39.5104 6.38106C39.9064 5.54106 40.3084 4.77906 40.7164 4.09506C41.1244 3.41106 41.5084 2.86506 41.8684 2.45706C42.2284 2.04906 42.5404 1.84506 42.8044 1.84506C43.0204 1.84506 43.1704 1.97706 43.2544 2.24106C43.3504 2.49306 43.3984 2.73906 43.3984 2.97906C43.3984 3.31506 43.3204 3.72306 43.1644 4.20306C43.0204 4.68306 42.8164 5.19906 42.5524 5.75106C42.2884 6.29106 41.9824 6.82506 41.6344 7.35306C41.2864 7.88106 40.9084 8.36706 40.5004 8.81106C40.0924 9.24306 39.6784 9.58506 39.2584 9.83706C39.1144 10.1851 38.9884 10.5751 38.8804 11.0071C38.7844 11.4391 38.7124 11.8651 38.6644 12.2851C38.6164 12.6931 38.5924 13.0591 38.5924 13.3831C38.5924 13.5151 38.5924 13.6291 38.5924 13.7251C38.6044 13.8211 38.6164 13.9111 38.6284 13.9951C38.7964 13.5031 38.9764 13.0291 39.1684 12.5731C39.3724 12.1051 39.5884 11.6791 39.8164 11.2951C40.0444 10.8991 40.2844 10.5571 40.5364 10.2691C40.8004 9.96906 41.0764 9.74106 41.3644 9.58506C41.6524 9.41706 41.9584 9.33306 42.2824 9.33306C42.6184 9.33306 42.8824 9.41706 43.0744 9.58506C43.2784 9.74106 43.4224 9.94506 43.5064 10.1971C43.6024 10.4371 43.6504 10.6891 43.6504 10.9531C43.6504 11.3251 43.5844 11.6851 43.4524 12.0331C43.3324 12.3811 43.2064 12.7171 43.0744 13.0411C42.9424 13.3651 42.8764 13.6771 42.8764 13.9771C42.8764 14.2171 42.9244 14.3911 43.0204 14.4991C43.1284 14.6071 43.2604 14.6611 43.4164 14.6611C43.6924 14.6611 43.9984 14.5291 44.3344 14.2651C44.6824 14.0011 45.0244 13.6531 45.3604 13.2211C45.6964 12.7771 45.9844 12.2971 46.2244 11.7811L46.4584 11.9971C46.2064 12.5851 45.9004 13.1191 45.5404 13.5991C45.1804 14.0671 44.7844 14.4391 44.3524 14.7151C43.9204 14.9911 43.4704 15.1291 43.0024 15.1291C42.5944 15.1291 42.2824 15.0211 42.0664 14.8051C41.8624 14.5891 41.7604 14.3191 41.7604 13.9951C41.7604 13.7431 41.8084 13.4611 41.9044 13.1491C42.0004 12.8371 42.0904 12.5191 42.1744 12.1951C42.2704 11.8711 42.3184 11.5651 42.3184 11.2771C42.3184 10.9651 42.2524 10.7431 42.1204 10.6111C41.9884 10.4791 41.8264 10.4131 41.6344 10.4131C41.3344 10.4131 41.0644 10.5331 40.8244 10.7731C40.5844 11.0131 40.3624 11.3251 40.1584 11.7091C39.9664 12.0811 39.7804 12.4771 39.6004 12.8971C39.4324 13.3171 39.2704 13.7191 39.1144 14.1031C38.9584 14.4751 38.8024 14.7811 38.6464 15.0211C38.4904 15.2611 38.3284 15.3811 38.1604 15.3811ZM39.4924 9.13506C39.8284 8.87106 40.1524 8.53506 40.4644 8.12706C40.7884 7.71906 41.0884 7.28706 41.3644 6.83106C41.6404 6.36306 41.8864 5.90706 42.1024 5.46306C42.3184 5.01906 42.4864 4.61706 42.6064 4.25706C42.7264 3.89706 42.7864 3.62706 42.7864 3.44706C42.7864 3.38706 42.7804 3.35106 42.7684 3.33906C42.7564 3.31506 42.7384 3.30306 42.7144 3.30306C42.6304 3.30306 42.4564 3.47106 42.1924 3.80706C41.9404 4.13106 41.6464 4.56906 41.3104 5.12106C40.9744 5.67306 40.6444 6.29706 40.3204 6.99306C39.9964 7.68906 39.7204 8.40306 39.4924 9.13506Z" fill="#C0841D"/>
<path d="M54.4928 16.2631C53.6408 16.2631 52.9507 16.0471 52.4227 15.6151C51.9067 15.1951 51.5287 14.6491 51.2887 13.9771C51.0607 13.3051 50.9468 12.6031 50.9468 11.8711C50.9468 10.9231 51.0907 9.96906 51.3787 9.00906C51.6667 8.04906 52.0568 7.13706 52.5488 6.27306C53.0528 5.39706 53.6228 4.62306 54.2588 3.95106C54.8948 3.26706 55.5607 2.73306 56.2567 2.34906C56.9647 1.95306 57.6607 1.75506 58.3447 1.75506C58.8367 1.75506 59.2327 1.87506 59.5327 2.11506C59.8447 2.34306 60.0008 2.73906 60.0008 3.30306C60.0008 3.65106 59.9408 4.04706 59.8208 4.49106C59.7008 4.92306 59.5388 5.34306 59.3348 5.75106C59.1308 6.14706 58.9027 6.47706 58.6507 6.74106C58.4107 7.00506 58.1648 7.13706 57.9128 7.13706C57.8168 7.13706 57.7148 7.10706 57.6068 7.04706C57.5108 6.98706 57.4268 6.87906 57.3548 6.72306C57.5348 6.51906 57.7327 6.26706 57.9487 5.96706C58.1767 5.65506 58.3928 5.33106 58.5968 4.99506C58.8008 4.64706 58.9628 4.31106 59.0828 3.98706C59.2148 3.65106 59.2808 3.35706 59.2808 3.10506C59.2808 2.86506 59.2088 2.67306 59.0648 2.52906C58.9328 2.37306 58.7108 2.29506 58.3988 2.29506C57.8828 2.29506 57.3428 2.50506 56.7788 2.92506C56.2268 3.34506 55.6867 3.90906 55.1587 4.61706C54.6427 5.31306 54.1747 6.09306 53.7547 6.95706C53.3347 7.82106 52.9987 8.70306 52.7467 9.60306C52.5067 10.5031 52.3867 11.3611 52.3867 12.1771C52.3867 12.7651 52.4708 13.3291 52.6388 13.8691C52.8068 14.3971 53.0767 14.8231 53.4487 15.1471C53.8327 15.4831 54.3248 15.6511 54.9248 15.6511C55.5608 15.6511 56.1908 15.4711 56.8148 15.1111C57.4508 14.7511 58.0327 14.2771 58.5607 13.6891C59.0887 13.1011 59.5088 12.4651 59.8208 11.7811L60.0728 11.9611C59.6767 12.7411 59.1968 13.4611 58.6328 14.1211C58.0688 14.7691 57.4388 15.2851 56.7428 15.6691C56.0468 16.0651 55.2968 16.2631 54.4928 16.2631Z" fill="#C0841D"/>
<path d="M60.7953 15.2371C60.3873 15.2371 60.0573 15.0571 59.8053 14.6971C59.5653 14.3251 59.4453 13.8991 59.4453 13.4191C59.4453 13.0711 59.4993 12.6691 59.6073 12.2131C59.7273 11.7571 59.8713 11.3071 60.0393 10.8631C60.2073 10.4191 60.3813 10.0531 60.5613 9.76506C60.7413 9.47706 60.8973 9.33306 61.0293 9.33306C61.0893 9.33306 61.1913 9.36906 61.3353 9.44106C61.4793 9.50106 61.5993 9.58506 61.6953 9.69306C61.5633 9.89706 61.4013 10.2091 61.2093 10.6291C61.0173 11.0491 60.8493 11.4991 60.7053 11.9791C60.5613 12.4591 60.4893 12.9031 60.4893 13.3111C60.4893 13.4071 60.5013 13.5571 60.5253 13.7611C60.5493 13.9531 60.6093 14.1271 60.7053 14.2831C60.8013 14.4391 60.9453 14.5171 61.1373 14.5171C61.3653 14.5171 61.5993 14.4031 61.8393 14.1751C62.0793 13.9351 62.3193 13.6291 62.5593 13.2571C62.8113 12.8851 63.0513 12.4831 63.2793 12.0511C63.5073 11.6191 63.7173 11.2051 63.9093 10.8091C64.1133 10.4131 64.2813 10.0831 64.4133 9.81906C64.4853 9.83106 64.5873 9.85506 64.7193 9.89106C64.8633 9.92706 64.9893 9.97506 65.0973 10.0351C65.2173 10.0951 65.2773 10.1791 65.2773 10.2871C65.2773 10.3351 65.2173 10.4971 65.0973 10.7731C64.9773 11.0371 64.8333 11.3671 64.6653 11.7631C64.5093 12.1471 64.3713 12.5371 64.2513 12.9331C64.1313 13.3291 64.0713 13.6771 64.0713 13.9771C64.0713 14.1931 64.1133 14.3671 64.1973 14.4991C64.2933 14.6311 64.4493 14.6971 64.6653 14.6971C64.9173 14.6971 65.2233 14.5831 65.5833 14.3551C65.9433 14.1271 66.3093 13.7971 66.6813 13.3651C67.0533 12.9211 67.3833 12.3931 67.6713 11.7811L67.9053 11.9431C67.6533 12.5911 67.3233 13.1671 66.9153 13.6711C66.5073 14.1631 66.0753 14.5471 65.6193 14.8231C65.1633 15.0991 64.7193 15.2371 64.2873 15.2371C63.9753 15.2371 63.7233 15.1771 63.5313 15.0571C63.3513 14.9371 63.2193 14.7751 63.1353 14.5711C63.0633 14.3671 63.0273 14.1451 63.0273 13.9051C63.0273 13.7611 63.0393 13.6171 63.0633 13.4731C63.0873 13.3171 63.1173 13.1611 63.1533 13.0051C62.9373 13.4011 62.7033 13.7731 62.4513 14.1211C62.1993 14.4571 61.9353 14.7271 61.6593 14.9311C61.3833 15.1351 61.0953 15.2371 60.7953 15.2371Z" fill="#C0841D"/>
<path d="M68.6339 15.1651C68.1659 15.1651 67.8179 15.0151 67.5899 14.7151C67.3619 14.4271 67.2479 14.0731 67.2479 13.6531C67.2479 13.3771 67.2959 13.0291 67.3919 12.6091C67.4999 12.1891 67.6379 11.7511 67.8059 11.2951C67.9739 10.8271 68.1659 10.3891 68.3819 9.98106C68.6099 9.57306 68.8499 9.24306 69.1019 8.99106C69.3539 8.72706 69.5999 8.59506 69.8399 8.59506C69.9479 8.59506 70.0379 8.63106 70.1099 8.70306C70.1939 8.76306 70.2359 8.85906 70.2359 8.99106C70.2359 9.13506 70.1399 9.36906 69.9479 9.69306C69.7679 10.0171 69.5519 10.3891 69.2999 10.8091C69.0479 11.2291 68.8259 11.6731 68.6339 12.1411C68.4539 12.5971 68.3639 13.0351 68.3639 13.4551C68.3639 13.8871 68.4359 14.1751 68.5799 14.3191C68.7239 14.4631 68.9459 14.5351 69.2459 14.5351C69.6539 14.5351 70.0859 14.3311 70.5419 13.9231C71.0099 13.5151 71.5019 12.8011 72.0179 11.7811L72.1799 11.9611C71.8319 12.9931 71.3279 13.7851 70.6679 14.3371C70.0199 14.8891 69.3419 15.1651 68.6339 15.1651ZM70.7939 6.92106C70.6019 6.92106 70.4279 6.87306 70.2719 6.77706C70.1279 6.68106 70.0559 6.53106 70.0559 6.32706C70.0559 6.07506 70.1999 5.85906 70.4879 5.67906C70.7879 5.48706 71.0819 5.39106 71.3699 5.39106C71.5499 5.39106 71.6939 5.43306 71.8019 5.51706C71.9099 5.60106 71.9639 5.74506 71.9639 5.94906C71.9639 6.17706 71.8379 6.39906 71.5859 6.61506C71.3459 6.81906 71.0819 6.92106 70.7939 6.92106Z" fill="#C0841D"/>
<path d="M73.5697 15.6151C73.0057 15.6151 72.5557 15.4891 72.2197 15.2371C71.8957 14.9971 71.6677 14.6971 71.5357 14.3371C71.3917 13.9771 71.3197 13.6171 71.3197 13.2571C71.3197 12.8971 71.3677 12.6211 71.4637 12.4291C71.5597 12.2371 71.6737 12.0931 71.8057 11.9971C71.9497 11.9011 72.0817 11.8291 72.2017 11.7811C72.3337 11.7331 72.4237 11.6851 72.4717 11.6371C72.8317 11.2411 73.1617 10.8271 73.4617 10.3951C73.7617 9.96306 74.0257 9.50706 74.2537 9.02706V8.81106C74.2537 8.36706 74.3257 8.05506 74.4697 7.87506C74.6257 7.68306 74.7877 7.58706 74.9557 7.58706C75.0517 7.58706 75.1237 7.61106 75.1717 7.65906C75.2197 7.70706 75.2437 7.76106 75.2437 7.82106C75.2437 7.88106 75.2257 7.97706 75.1897 8.10906C75.1537 8.24106 75.1357 8.40906 75.1357 8.61306C75.1357 9.00906 75.2137 9.44106 75.3697 9.90906C75.5257 10.3651 75.6817 10.8511 75.8377 11.3671C75.9937 11.8711 76.0717 12.3991 76.0717 12.9511C76.0717 13.1071 76.0597 13.2631 76.0357 13.4191C76.0237 13.5631 75.9997 13.7011 75.9637 13.8331C76.3837 13.7611 76.7797 13.5751 77.1517 13.2751C77.5237 12.9631 77.8837 12.4711 78.2317 11.7991L78.3937 11.9791C78.1657 12.6391 77.8237 13.1431 77.3677 13.4911C76.9117 13.8271 76.4137 14.0371 75.8737 14.1211C75.6817 14.6371 75.3757 15.0151 74.9557 15.2551C74.5477 15.4951 74.0857 15.6151 73.5697 15.6151ZM73.6057 14.9851C73.7497 14.9851 73.9417 14.9371 74.1817 14.8411C74.4217 14.7451 74.6077 14.4991 74.7397 14.1031C74.2357 14.0071 73.7857 13.8091 73.3897 13.5091C73.0057 13.2091 72.7177 12.9091 72.5257 12.6091C72.2617 12.6211 72.1297 12.8311 72.1297 13.2391C72.1297 13.6711 72.2557 14.0731 72.5077 14.4451C72.7717 14.8051 73.1377 14.9851 73.6057 14.9851ZM74.8297 13.8151C74.8537 13.6951 74.8717 13.5691 74.8837 13.4371C74.8957 13.3051 74.9017 13.1491 74.9017 12.9691C74.9017 12.4051 74.8297 11.8471 74.6857 11.2951C74.5537 10.7311 74.4397 10.2031 74.3437 9.71106C74.0677 10.1671 73.7737 10.6051 73.4617 11.0251C73.1617 11.4331 72.8737 11.7751 72.5977 12.0511C72.7777 12.4351 73.0537 12.7951 73.4257 13.1311C73.8097 13.4671 74.2777 13.6951 74.8297 13.8151Z" fill="#C0841D"/>
<path d="M79.1807 15.1651C78.7127 15.1651 78.3647 15.0151 78.1367 14.7151C77.9087 14.4271 77.7947 14.0731 77.7947 13.6531C77.7947 13.3771 77.8427 13.0291 77.9387 12.6091C78.0467 12.1891 78.1847 11.7511 78.3527 11.2951C78.5207 10.8271 78.7127 10.3891 78.9287 9.98106C79.1567 9.57306 79.3967 9.24306 79.6487 8.99106C79.9007 8.72706 80.1467 8.59506 80.3867 8.59506C80.4947 8.59506 80.5847 8.63106 80.6567 8.70306C80.7407 8.76306 80.7827 8.85906 80.7827 8.99106C80.7827 9.13506 80.6867 9.36906 80.4947 9.69306C80.3147 10.0171 80.0987 10.3891 79.8467 10.8091C79.5947 11.2291 79.3727 11.6731 79.1807 12.1411C79.0007 12.5971 78.9107 13.0351 78.9107 13.4551C78.9107 13.8871 78.9827 14.1751 79.1267 14.3191C79.2707 14.4631 79.4927 14.5351 79.7927 14.5351C80.2007 14.5351 80.6327 14.3311 81.0887 13.9231C81.5567 13.5151 82.0487 12.8011 82.5647 11.7811L82.7267 11.9611C82.3787 12.9931 81.8747 13.7851 81.2147 14.3371C80.5667 14.8891 79.8887 15.1651 79.1807 15.1651ZM81.3407 6.92106C81.1487 6.92106 80.9747 6.87306 80.8187 6.77706C80.6747 6.68106 80.6027 6.53106 80.6027 6.32706C80.6027 6.07506 80.7467 5.85906 81.0347 5.67906C81.3347 5.48706 81.6287 5.39106 81.9167 5.39106C82.0967 5.39106 82.2407 5.43306 82.3487 5.51706C82.4567 5.60106 82.5107 5.74506 82.5107 5.94906C82.5107 6.17706 82.3847 6.39906 82.1327 6.61506C81.8927 6.81906 81.6287 6.92106 81.3407 6.92106Z" fill="#C0841D"/>
<path d="M88.0405 15.0571C87.6205 15.0571 87.3025 14.9491 87.0865 14.7331C86.8825 14.5171 86.7805 14.2411 86.7805 13.9051C86.7805 13.6531 86.8225 13.3891 86.9065 13.1131C87.0025 12.8371 87.0925 12.5551 87.1765 12.2671C87.2605 11.9671 87.3025 11.6791 87.3025 11.4031C87.3025 11.0671 87.2305 10.8391 87.0865 10.7191C86.9545 10.5871 86.7865 10.5211 86.5825 10.5211C86.2105 10.5211 85.8325 10.6771 85.4485 10.9891C85.0645 11.2891 84.6925 11.6791 84.3325 12.1591C83.9725 12.6271 83.6365 13.1131 83.3245 13.6171C83.0125 14.1211 82.7365 14.5711 82.4965 14.9671C82.3045 14.9671 82.1245 14.9311 81.9565 14.8591C81.7765 14.7991 81.6385 14.7031 81.5425 14.5711C81.5425 14.5111 81.6085 14.3251 81.7405 14.0131C81.8605 13.7011 82.0045 13.3171 82.1725 12.8611C82.3405 12.4051 82.4905 11.9371 82.6225 11.4571C82.7545 10.9771 82.8205 10.5391 82.8205 10.1431C82.8925 10.0591 83.0065 9.97506 83.1625 9.89106C83.3185 9.80706 83.4805 9.76506 83.6485 9.76506C83.9725 9.76506 84.1345 9.92106 84.1345 10.2331C84.1345 10.4251 84.0805 10.7491 83.9725 11.2051C83.8645 11.6491 83.7265 12.1171 83.5585 12.6091C83.8825 12.1171 84.2425 11.6311 84.6385 11.1511C85.0465 10.6591 85.4785 10.2511 85.9345 9.92706C86.3905 9.60306 86.8465 9.44106 87.3025 9.44106C87.7705 9.44106 88.1065 9.60906 88.3105 9.94506C88.5265 10.2811 88.6345 10.6531 88.6345 11.0611C88.6345 11.4331 88.5745 11.7811 88.4545 12.1051C88.3345 12.4171 88.2085 12.7231 88.0765 13.0231C87.9565 13.3111 87.8965 13.6051 87.8965 13.9051C87.8965 14.1571 87.9445 14.3371 88.0405 14.4451C88.1485 14.5411 88.2805 14.5891 88.4365 14.5891C88.7365 14.5891 89.0365 14.4511 89.3365 14.1751C89.6365 13.8871 89.9245 13.5271 90.2005 13.0951C90.4885 12.6631 90.7405 12.2251 90.9565 11.7811L91.1545 12.0151C90.9025 12.6031 90.6205 13.1251 90.3085 13.5811C89.9965 14.0371 89.6545 14.3971 89.2825 14.6611C88.9105 14.9251 88.4965 15.0571 88.0405 15.0571Z" fill="#C0841D"/>
<path d="M92.5553 15.4891C91.8233 15.4891 91.2713 15.2851 90.8993 14.8771C90.5393 14.4811 90.3593 13.9891 90.3593 13.4011C90.3593 12.8611 90.4913 12.2911 90.7553 11.6911C91.0313 11.0911 91.3913 10.5271 91.8353 9.99906C92.2913 9.47106 92.7893 9.04506 93.3293 8.72106C93.8693 8.38506 94.4033 8.21706 94.9313 8.21706C95.2073 8.21706 95.4593 8.28906 95.6873 8.43306C95.9273 8.57706 96.0473 8.87106 96.0473 9.31506C96.0473 9.77106 95.9093 10.2031 95.6333 10.6111C95.3693 11.0071 95.0153 11.3611 94.5713 11.6731C94.1393 11.9851 93.6593 12.2431 93.1313 12.4471C92.6153 12.6391 92.0993 12.7591 91.5833 12.8071C91.5593 12.9271 91.5413 13.0411 91.5293 13.1491C91.5173 13.2571 91.5113 13.3591 91.5113 13.4551C91.5113 13.6351 91.5293 13.8151 91.5653 13.9951C91.6133 14.1751 91.6913 14.3431 91.7993 14.4991C91.9073 14.6431 92.0513 14.7571 92.2313 14.8411C92.4233 14.9251 92.6573 14.9671 92.9333 14.9671C93.4493 14.9671 93.9593 14.8231 94.4633 14.5351C94.9673 14.2351 95.4353 13.8451 95.8673 13.3651C96.2993 12.8851 96.6653 12.3571 96.9653 11.7811L97.1813 11.9431C96.8573 12.6631 96.4433 13.2871 95.9393 13.8151C95.4473 14.3431 94.9073 14.7511 94.3193 15.0391C93.7433 15.3391 93.1553 15.4891 92.5553 15.4891ZM91.6733 12.4651C91.9973 12.3571 92.3633 12.2011 92.7713 11.9971C93.1793 11.7811 93.5693 11.5291 93.9413 11.2411C94.3253 10.9531 94.6373 10.6351 94.8773 10.2871C95.1293 9.93906 95.2553 9.57306 95.2553 9.18906C95.2553 9.05706 95.2313 8.95506 95.1833 8.88306C95.1353 8.81106 95.0333 8.77506 94.8773 8.77506C94.5893 8.77506 94.2833 8.88906 93.9593 9.11706C93.6353 9.33306 93.3233 9.62106 93.0233 9.98106C92.7233 10.3411 92.4533 10.7371 92.2133 11.1691C91.9733 11.6011 91.7933 12.0331 91.6733 12.4651Z" fill="#C0841D"/>
</svg>
